<svg width="44" height="44" viewBox="0 0 44 44" fill="none" xmlns="http://www.w3.org/2000/svg">
<g clip-path="url(#clip0_834_614)">
<path d="M21.9817 3.66663C11.8617 3.66663 3.66666 11.88 3.66666 22C3.66666 32.12 11.8617 40.3333 21.9817 40.3333C32.12 40.3333 40.3333 32.12 40.3333 22C40.3333 11.88 32.12 3.66663 21.9817 3.66663ZM34.6867 14.6666H29.2783C28.6917 12.375 27.8483 10.175 26.7483 8.13996C30.1217 9.29496 32.9267 11.6416 34.6867 14.6666ZM22 7.40663C23.5217 9.60663 24.7133 12.045 25.5017 14.6666H18.4983C19.2867 12.045 20.4783 9.60663 22 7.40663ZM7.80999 25.6666C7.51666 24.4933 7.33332 23.265 7.33332 22C7.33332 20.735 7.51666 19.5066 7.80999 18.3333H14.0067C13.86 19.5433 13.75 20.7533 13.75 22C13.75 23.2466 13.86 24.4566 14.0067 25.6666H7.80999ZM9.31332 29.3333H14.7217C15.3083 31.625 16.1517 33.825 17.2517 35.86C13.8783 34.705 11.0733 32.3766 9.31332 29.3333ZM14.7217 14.6666H9.31332C11.0733 11.6233 13.8783 9.29496 17.2517 8.13996C16.1517 10.175 15.3083 12.375 14.7217 14.6666ZM22 36.5933C20.4783 34.3933 19.2867 31.955 18.4983 29.3333H25.5017C24.7133 31.955 23.5217 34.3933 22 36.5933ZM26.29 25.6666H17.71C17.545 24.4566 17.4167 23.2466 17.4167 22C17.4167 20.7533 17.545 19.525 17.71 18.3333H26.29C26.455 19.525 26.5833 20.7533 26.5833 22C26.5833 23.2466 26.455 24.4566 26.29 25.6666ZM26.7483 35.86C27.8483 33.825 28.6917 31.625 29.2783 29.3333H34.6867C32.9267 32.3583 30.1217 34.705 26.7483 35.86ZM29.9933 25.6666C30.14 24.4566 30.25 23.2466 30.25 22C30.25 20.7533 30.14 19.5433 29.9933 18.3333H36.19C36.4833 19.5066 36.6667 20.735 36.6667 22C36.6667 23.265 36.4833 24.4933 36.19 25.6666H29.9933Z" fill="white"/>
</g>
<defs>
<clipPath id="clip0_834_614">
<rect width="44" height="44" fill="white"/>
</clipPath>
</defs>
</svg>
