<svg width="32" height="33" viewBox="0 0 32 33" fill="none" xmlns="http://www.w3.org/2000/svg">
<path d="M28.4138 9.67122L22.8288 4.08497C22.643 3.89921 22.4225 3.75185 22.1799 3.65131C21.9372 3.55077 21.6771 3.49902 21.4144 3.49902C21.1517 3.49902 20.8916 3.55077 20.6489 3.65131C20.4062 3.75185 20.1857 3.89921 20 4.08497L4.58626 19.5C4.39973 19.685 4.25185 19.9053 4.15121 20.148C4.05057 20.3907 3.99917 20.651 4.00001 20.9137V26.5C4.00001 27.0304 4.21072 27.5391 4.5858 27.9142C4.96087 28.2893 5.46958 28.5 6.00001 28.5H11.5863C11.849 28.5008 12.1093 28.4494 12.352 28.3488C12.5947 28.2481 12.815 28.1002 13 27.9137L28.4138 12.5C28.5995 12.3142 28.7469 12.0937 28.8474 11.8511C28.948 11.6084 28.9997 11.3483 28.9997 11.0856C28.9997 10.8229 28.948 10.5628 28.8474 10.3201C28.7469 10.0774 28.5995 9.85694 28.4138 9.67122ZM11.5863 26.5H6.00001V20.9137L17 9.91372L22.5863 15.5L11.5863 26.5ZM24 14.085L18.4138 8.49997L21.4138 5.49997L27 11.085L24 14.085Z" fill="black"/>
</svg>
