<svg viewBox="0 0 16 16" xml:space="preserve" xmlns="http://www.w3.org/2000/svg" enable-background="new 0 0 16 16"><path d="M6 6c0-.93-.64-1.71-1.5-1.93V2.5c0-.28-.22-.5-.5-.5s-.5.22-.5.5v1.57C2.64 4.29 2 5.07 2 6s.64 1.71 1.5 1.93v5.57c0 .28.22.5.5.5s.5-.22.5-.5V7.93C5.36 7.71 6 6.93 6 6zM4 7c-.55 0-1-.45-1-1s.45-1 1-1 1 .45 1 1-.45 1-1 1zM8.5 9.07V2.5c0-.28-.22-.5-.5-.5s-.5.22-.5.5v6.57c-.86.22-1.5 1-1.5 1.93s.64 1.71 1.5 1.93v.57c0 .28.22.5.5.5s.5-.22.5-.5v-.57c.86-.22 1.5-1 1.5-1.93s-.64-1.71-1.5-1.93zM8 12c-.55 0-1-.45-1-1s.45-1 1-1 1 .45 1 1-.45 1-1 1zM14 5c0-.93-.64-1.71-1.5-1.93V2.5c0-.28-.22-.5-.5-.5s-.5.22-.5.5v.57c-.86.22-1.5 1-1.5 1.93s.64 1.71 1.5 1.93v6.57c0 .28.22.5.5.5s.5-.22.5-.5V6.93c.86-.22 1.5-1 1.5-1.93zm-2 1c-.55 0-1-.45-1-1s.45-1 1-1 1 .45 1 1-.45 1-1 1z" fill="#ffffff" class="fill-000000"></path></svg>