<svg width="100" height="99" viewBox="0 0 100 99" fill="none" xmlns="http://www.w3.org/2000/svg">
<path d="M38.3301 0.139999L35.8789 12.7572C31.7581 14.3113 27.9739 16.4897 24.6582 19.2123L12.5391 15.0326L0.859375 35.2474L10.5664 43.6849C10.1932 45.9761 10 48.0992 10 50.14C10 52.1838 10.199 54.3031 10.5664 56.5951V56.6048L0.859375 65.0423L12.5391 85.2474L24.6484 81.0775C27.9645 83.8016 31.7572 85.9678 35.8789 87.5228L38.3301 100.14H61.6699L64.1211 87.5228C68.2446 85.9677 72.0245 83.7928 75.3418 81.0677L87.4609 85.2474L99.1309 65.0423L89.4336 56.5951C89.8068 54.3039 90 52.1808 90 50.14C90 48.1023 89.8056 45.9819 89.4336 43.6947V43.6849L99.1406 35.2377L87.4609 15.0326L75.3516 19.2025C72.0355 16.4784 68.2428 14.3122 64.1211 12.7572L61.6699 0.139999H38.3301ZM46.5723 10.14H53.4277L55.3711 20.14L60.5859 22.1127C63.7293 23.2973 66.5534 24.9238 69.0039 26.9369L73.3203 30.472L82.9297 27.1712L86.3574 33.099L78.6816 39.7787L79.5605 45.2767V45.2865C79.8663 47.1612 80 48.7338 80 50.14C80 51.5462 79.8663 53.1186 79.5605 54.9935L78.6719 60.4916L86.3477 67.1712L82.9199 73.1087L73.3203 69.7982L68.9941 73.3431C66.5436 75.3562 63.7293 76.9826 60.5859 78.1673H60.5762L55.3613 80.14L53.418 90.14H46.5723L44.6289 80.14L39.4141 78.1673C36.2707 76.9826 33.4466 75.3562 30.9961 73.3431L26.6797 69.808L17.0703 73.1087L13.6426 67.181L21.3281 60.4916L20.4395 55.013V55.0033C20.1381 53.1204 20 51.5434 20 50.14C20 48.7338 20.1337 47.1614 20.4395 45.2865L21.3281 39.7884L13.6426 33.1087L17.0703 27.1712L26.6797 30.4818L30.9961 26.9369C33.4466 24.9238 36.2707 23.2974 39.4141 22.1127L44.6289 20.14L46.5723 10.14ZM50 30.14C39.0174 30.14 30 39.1574 30 50.14C30 61.1226 39.0174 70.14 50 70.14C60.9826 70.14 70 61.1226 70 50.14C70 39.1574 60.9826 30.14 50 30.14ZM50 40.14C55.5574 40.14 60 44.5826 60 50.14C60 55.6974 55.5574 60.14 50 60.14C44.4426 60.14 40 55.6974 40 50.14C40 44.5826 44.4426 40.14 50 40.14Z" fill="white"/>
</svg>
