<svg width="30" height="32" viewBox="0 0 30 32" fill="none" xmlns="http://www.w3.org/2000/svg">
<path d="M24.1008 24.2925C24.1879 24.3854 24.257 24.4957 24.3042 24.6171C24.3513 24.7385 24.3756 24.8686 24.3756 25C24.3756 25.1314 24.3513 25.2615 24.3042 25.3829C24.257 25.5043 24.1879 25.6146 24.1008 25.7075C24.0137 25.8004 23.9103 25.8741 23.7965 25.9244C23.6827 25.9747 23.5607 26.0006 23.4375 26.0006C23.3144 26.0006 23.1924 25.9747 23.0786 25.9244C22.9648 25.8741 22.8614 25.8004 22.7743 25.7075L15 17.4138L7.22581 25.7075C7.0499 25.8951 6.81131 26.0006 6.56253 26.0006C6.31375 26.0006 6.07516 25.8951 5.89925 25.7075C5.72334 25.5199 5.62451 25.2654 5.62451 25C5.62451 24.7346 5.72334 24.4801 5.89925 24.2925L13.6746 16L5.89925 7.70751C5.72334 7.51987 5.62451 7.26537 5.62451 7.00001C5.62451 6.73464 5.72334 6.48015 5.89925 6.29251C6.07516 6.10487 6.31375 5.99945 6.56253 5.99945C6.81131 5.99945 7.0499 6.10487 7.22581 6.29251L15 14.5863L22.7743 6.29251C22.9502 6.10487 23.1888 5.99945 23.4375 5.99945C23.6863 5.99945 23.9249 6.10487 24.1008 6.29251C24.2767 6.48015 24.3756 6.73464 24.3756 7.00001C24.3756 7.26537 24.2767 7.51987 24.1008 7.70751L16.3254 16L24.1008 24.2925Z" fill="white"/>
</svg>
