<svg width="20" height="20" viewBox="0 0 20 20" fill="none" xmlns="http://www.w3.org/2000/svg">
<path d="M19.1008 18.2924C19.1879 18.3854 19.257 18.4957 19.3041 18.6171C19.3513 18.7384 19.3755 18.8686 19.3755 18.9999C19.3755 19.1313 19.3513 19.2614 19.3041 19.3828C19.257 19.5042 19.1879 19.6145 19.1008 19.7074C19.0137 19.8004 18.9103 19.8741 18.7965 19.9243C18.6827 19.9746 18.5607 20.0005 18.4375 20.0005C18.3143 20.0005 18.1923 19.9746 18.0785 19.9243C17.9647 19.8741 17.8613 19.8004 17.7742 19.7074L10 11.4137L2.22578 19.7074C2.04987 19.8951 1.81128 20.0005 1.5625 20.0005C1.31372 20.0005 1.07513 19.8951 0.899221 19.7074C0.723308 19.5198 0.624481 19.2653 0.624481 18.9999C0.624481 18.7346 0.723308 18.4801 0.899221 18.2924L8.67461 9.99995L0.899221 1.70745C0.723308 1.5198 0.624481 1.26531 0.624481 0.999946C0.624481 0.734582 0.723308 0.480086 0.899221 0.292446C1.07513 0.104805 1.31372 -0.000610352 1.5625 -0.000610352C1.81128 -0.000610352 2.04987 0.104805 2.22578 0.292446L10 8.5862L17.7742 0.292446C17.9501 0.104805 18.1887 -0.000610357 18.4375 -0.000610352C18.6863 -0.000610346 18.9249 0.104805 19.1008 0.292446C19.2767 0.480086 19.3755 0.734582 19.3755 0.999946C19.3755 1.26531 19.2767 1.5198 19.1008 1.70745L11.3254 9.99995L19.1008 18.2924Z" fill="#0D0D0D"/>
</svg>
